<?xml version="1.0" encoding="utf-8"?>
<!-- Uploaded to: SVG Repo, www.svgrepo.com, Generator: SVG Repo Mixer Tools -->
<svg fill="#000000" version="1.1" id="Layer_1" xmlns="http://www.w3.org/2000/svg" xmlns:xlink="http://www.w3.org/1999/xlink" 
	 width="800px" height="800px" viewBox="0 0 256 190" enable-background="new 0 0 256 190" xml:space="preserve">
<path d="M48.12,27.903C48.12,13.564,59.592,2,74.023,2c14.339,0,25.903,11.564,25.903,25.903
	C99.834,42.335,88.27,53.806,74.023,53.806C59.684,53.806,48.12,42.242,48.12,27.903z M191,139h-47V97c0-20.461-17.881-37-38-37H43
	C20.912,60,1.99,79.14,2,98v77c-0.026,8.533,6.001,12.989,12,13c6.014,0.011,12-4.445,12-13v-75h8v88h78v-88h8l0.081,50.37
	c-0.053,8.729,5.342,12.446,10.919,12.63h60C207.363,163,207.363,139,191,139z M251.652,56.921
	c-2.101-4.842-5.299-8.861-9.684-11.876c-3.837-2.741-8.222-4.476-12.972-5.116c-3.837-0.548-7.856-0.183-12.059,1.005
	c-5.207,1.553-9.409,4.294-12.333,8.313c-2.923-4.02-6.943-6.852-12.333-8.313c-4.202-1.188-8.13-1.553-12.059-1.005
	c-4.75,0.639-9.135,2.284-12.972,5.116c-4.294,3.015-7.582,7.126-9.684,11.876c-2.467,5.755-3.106,12.059-1.644,18.728
	c1.462,7.217,4.75,14.068,10.323,21.377c4.659,6.212,10.323,11.785,17.083,17.083c3.745,3.015,7.765,5.755,11.602,8.496l1.188,0.914
	c2.01,1.462,6.029,3.837,7.856,4.842c0.091,0.091,0.365,0.091,0.548,0.183c0.183-0.091,0.457-0.091,0.548-0.183
	c1.736-1.096,5.755-3.471,7.856-4.842l1.188-0.914c3.837-2.741,7.765-5.573,11.602-8.496c6.76-5.299,12.333-10.871,17.083-17.083
	c5.573-7.308,8.861-14.068,10.323-21.377C254.758,68.98,254.027,62.676,251.652,56.921z M246.81,74.278
	c-1.188,6.212-4.111,12.15-9.135,18.636c-4.294,5.755-9.501,10.871-15.896,15.896c-3.654,2.923-7.582,5.664-11.419,8.313
	l-1.188,0.914c-1.005,0.731-2.923,1.918-4.568,2.923c-1.644-1.005-3.563-2.192-4.568-2.923l-1.188-0.914
	c-3.746-2.649-7.674-5.39-11.419-8.313c-6.303-4.842-11.511-10.049-15.896-15.896c-1.736-2.467-3.289-4.75-4.659-6.943h10.962
	l4.111,10.688l8.313-22.016l11.785,31.06l8.496-22.29l1.005,2.741h10.78c0.731,1.644,2.467,2.741,4.476,2.741
	c2.741,0,5.024-2.192,5.024-5.024c0-2.741-2.192-5.024-5.024-5.024c-2.01,0-3.654,1.096-4.476,2.741h-7.582l-4.111-10.871
	l-8.496,22.29l-11.785-31.06l-8.405,22.199l-1.005-2.649h-16.261c-1.005-2.284-1.736-4.75-2.192-7.126
	c-1.096-5.39-0.639-10.232,1.37-14.708c1.644-3.746,4.02-6.76,7.308-9.135c3.015-2.101,6.303-3.471,10.049-4.02
	c3.015-0.457,6.029-0.091,9.227,0.731c4.02,1.188,6.852,3.197,8.953,6.121c0.548,0.731,1.005,1.553,1.553,2.284
	c0.183,0.457,0.548,0.914,0.731,1.37l2.923,4.568l2.923-4.568c0.365-0.457,0.548-0.914,0.731-1.37
	c0.548-0.914,1.005-1.644,1.553-2.284c2.101-3.015,5.024-5.024,8.953-6.121c3.197-1.005,6.212-1.188,9.227-0.731
	c3.746,0.548,6.943,1.736,10.049,4.02c3.289,2.284,5.755,5.299,7.308,9.135C247.541,64.047,247.997,68.98,246.81,74.278z"/>
</svg>