<?xml version="1.0" encoding="utf-8"?><!-- Uploaded to: SVG Repo, www.svgrepo.com, Generator: SVG Repo Mixer Tools -->
<svg width="800px" height="800px" viewBox="0 0 24 24" id="Layer_1" data-name="Layer 1" xmlns="http://www.w3.org/2000/svg"><defs><style>.cls-1{fill:none;stroke:#020202;stroke-miterlimit:10;stroke-width:1.91px;}</style></defs><circle class="cls-1" cx="12" cy="3.41" r="1.91"/><path class="cls-1" d="M9.14,8.18h0A2.86,2.86,0,0,1,12,5.32h0a2.86,2.86,0,0,1,2.86,2.86h0"/><circle class="cls-1" cx="19.64" cy="14.86" r="1.91"/><path class="cls-1" d="M16.77,19.64h0a2.86,2.86,0,0,1,2.87-2.87h0a2.86,2.86,0,0,1,2.86,2.87h0"/><circle class="cls-1" cx="4.36" cy="14.86" r="1.91"/><path class="cls-1" d="M1.5,19.64h0a2.86,2.86,0,0,1,2.86-2.87h0a2.86,2.86,0,0,1,2.87,2.87h0"/><path class="cls-1" d="M2.47,11.37A9.53,9.53,0,0,1,7.38,3.65"/><path class="cls-1" d="M16.62,3.65a9.53,9.53,0,0,1,4.91,7.72"/><path class="cls-1" d="M8.39,21.79a9.53,9.53,0,0,0,7.22,0"/></svg>