<?xml version="1.0" encoding="UTF-8"?><svg xmlns="http://www.w3.org/2000/svg" viewBox="0 0 620.71 304.11"><defs><style>.d{fill:#00ba78;}.e{fill:#00c7f5;}.f{fill:#f40058;}.g{fill:#f6b000;}.h{fill:#112438;}</style></defs><g id="a"/><g id="b"><g id="c"><g><g><path class="h" d="M37.04,140.36H5c-2.76,0-5-2.24-5-5v-16.83c0-2.76,2.24-5,5-5H37.04c2.76,0,5,2.24,5,5v16.83c0,2.76-2.24,5-5,5Zm0,122.98H5c-2.76,0-5-2.24-5-5v-102.7c0-2.76,2.24-5,5-5H37.04c2.76,0,5,2.24,5,5v102.7c0,2.76-2.24,5-5,5Z"/><path class="h" d="M101.74,263.34c-10.44,0-19.08-1.87-25.94-5.59-6.86-3.72-11.96-8.79-15.32-15.2-3.35-6.41-5.03-13.71-5.03-21.91v-67.22c0-2.76,2.24-5,5-5h32.04c2.76,0,5,2.24,5,5v51.79c0,7.75,1.82,13.12,5.48,16.1,3.65,2.98,10.25,4.47,19.79,4.47s16.13-1.38,19.34-4.14c3.2-2.76,4.81-7.79,4.81-15.09h4.25l3.58,20.35h-7.38c-.75,6.26-2.76,12.15-6.04,17.66-3.28,5.52-8.13,10.03-14.53,13.53-6.41,3.5-14.76,5.25-25.04,5.25Zm82.2-2.24h-29.35c-2.76,0-5-2.24-5-5v-29.66l-2.68-1.12v-71.92c0-2.76,2.24-5,5-5h32.04c2.76,0,5,2.24,5,5v102.7c0,2.76-2.24,5-5,5Z"/><path class="h" d="M238.5,263.34h-32.04c-2.76,0-5-2.24-5-5v-102.7c0-2.76,2.24-5,5-5h29.35c2.76,0,5,2.24,5,5v29.66l2.68,1.12v71.92c0,2.76-2.24,5-5,5Zm89.22,0h-32.04c-2.76,0-5-2.24-5-5v-51.79c0-7.9-1.72-13.3-5.14-16.21-3.43-2.91-9.77-4.36-19.01-4.36s-15.39,1.38-18.45,4.14c-3.06,2.76-4.58,7.79-4.58,15.09h-4.25l-3.58-20.35h7.38c.89-6.26,2.94-12.15,6.15-17.66,3.2-5.51,7.97-10.02,14.31-13.53,6.33-3.5,14.5-5.25,24.48-5.25s18.52,1.87,25.16,5.59c6.63,3.73,11.55,8.8,14.76,15.21,3.2,6.41,4.81,13.72,4.81,21.91v67.22c0,2.76-2.24,5-5,5Z"/><path class="h" d="M395.32,251.34c-11.18,0-20.65-2.05-28.4-6.15-7.75-4.1-13.68-9.99-17.78-17.66-4.1-7.68-6.15-16.88-6.15-27.62s2.12-19.68,6.37-27.28c4.25-7.6,10.4-13.45,18.45-17.55,8.05-4.1,17.59-6.15,28.62-6.15s20.83,2.35,28.06,7.04c7.23,4.7,11.59,11.89,13.08,21.58h6.93l-3.13,22.14h-4.25c0-4.02-.93-7.08-2.79-9.17-1.87-2.09-4.73-3.5-8.61-4.25-3.88-.74-8.94-1.12-15.21-1.12s-11.67,.49-15.32,1.45c-3.65,.97-6.19,2.5-7.6,4.58-1.42,2.09-2.12,5-2.12,8.72s.71,6.71,2.12,8.94c1.42,2.24,3.95,3.88,7.6,4.92,3.65,1.04,8.76,1.57,15.32,1.57,9.39,0,16.17-.86,20.35-2.57,4.17-1.71,6.26-5.55,6.26-11.52h4.25v22.81h-6.48c-1.49,8.2-5.37,14.8-11.63,19.79-6.26,5-15.58,7.49-27.95,7.49Zm16.55,52.77c-13.12,0-24.3-1.79-33.54-5.37-9.24-3.58-16.32-8.8-21.24-15.65-3.96-5.52-6.33-12.01-7.1-19.46-.31-2.98,1.98-5.58,4.97-5.58h32.2c2.38,0,4.49,1.66,4.9,4,.2,1.17,.51,2.18,.92,3.04,.82,1.71,2.83,2.87,6.04,3.47,3.2,.59,8.46,.89,15.76,.89,6.11,0,10.77-.49,13.98-1.45,3.2-.97,5.4-3.02,6.6-6.15,1.19-3.13,1.79-7.83,1.79-14.09v-68.87h2.68v-22.73c0-2.76,2.24-5,5-5h29.35c2.76,0,5,2.24,5,5v88.69c0,13.42-2.61,24.48-7.83,33.2-5.22,8.72-12.82,15.24-22.81,19.57-9.99,4.32-22.21,6.48-36.67,6.48Z"/><path class="h" d="M554.97,263.34c-12.97,0-24.41-2.35-34.32-7.04-9.92-4.7-17.63-11.44-23.14-20.24-5.52-8.79-8.27-19.23-8.27-31.3s2.76-22.7,8.27-31.42c5.51-8.72,13.23-15.43,23.14-20.12,9.91-4.7,21.35-7.04,34.32-7.04s24.6,2.35,34.43,7.04c9.84,4.7,17.51,11.4,23.03,20.12,5.51,8.72,8.27,19.2,8.27,31.42s-2.76,22.51-8.27,31.3c-5.52,8.8-13.19,15.54-23.03,20.24-9.84,4.7-21.32,7.04-34.43,7.04Zm0-37.12c9.54,0,15.95-1.53,19.23-4.58,3.28-3.05,4.92-8.68,4.92-16.88s-1.64-13.86-4.92-16.99c-3.28-3.13-9.69-4.7-19.23-4.7s-15.95,1.57-19.23,4.7c-3.28,3.13-4.92,8.8-4.92,16.99s1.64,13.83,4.92,16.88c3.28,3.06,9.69,4.58,19.23,4.58Z"/></g><g><path class="g" d="M376.64,68.03v41.31c0,2.21-1.79,4-4,4h-59.08c-1.47,0-2.81,.8-3.51,2.09l-8.49,15.62v-63.02h75.08Z"/><path class="h" d="M422.97,24.03v61.34c0,3.3-3.76,5.18-6.4,3.2l-35.62-26.73v-18.7l35.9-22.5c2.66-1.67,6.12,.24,6.12,3.39Z"/><path class="f" d="M301.56,68.03v63.02l-1.59,2.93c-1.59,2.93-5.86,2.74-7.18-.32l-7.76-17.91c-.63-1.47-2.07-2.41-3.67-2.41h-50.87c-2.21,0-4-1.79-4-4v-41.31h75.07Z"/><path class="e" d="M301.56,0V68.03h-75.07V4c0-2.21,1.79-4,4-4h71.07Z"/><path class="d" d="M376.64,4V68.03h-75.08V0h71.08c2.21,0,4,1.79,4,4Z"/></g></g></g></g></svg>