<?xml version="1.0" encoding="UTF-8"?><svg xmlns="http://www.w3.org/2000/svg" viewBox="0 0 208.48 148.07"><defs><style>.d{fill:#00ba78;}.e{fill:#00c7f5;}.f{fill:#f40058;}.g{fill:#f6b000;}.h{fill:#fff;}.i{fill:#112438;}</style></defs><g id="a"/><g id="b"><g id="c"><g><path class="h" d="M198.47,20.02c-1.87,0-3.7,.53-5.3,1.53l-31.02,19.44V10c0-5.51-4.49-10-10-10H10C4.49,0,0,4.49,0,10V115.34c0,5.51,4.49,10,10,10H59.56l7.23,16.7c1.58,3.67,5.18,6.03,9.18,6.03h0c3.67,0,7.03-2,8.78-5.23l1.59-2.92h0l7.92-14.58h57.89c5.51,0,10-4.49,10-10v-38.73l30.33,22.76c1.75,1.31,3.82,2.01,5.99,2.01h0c2.58,0,5.03-.98,6.91-2.76,2-1.9,3.1-4.47,3.1-7.25V30.03c0-5.52-4.49-10.01-10-10.01Z"/><g><path class="g" d="M81.07,137.05l8.49-15.62c.7-1.29,2.04-2.09,3.51-2.09h59.08c2.21,0,4-1.79,4-4v-41.31H81.07v63.02Z"/><path class="i" d="M196.36,26.64l-35.9,22.5v18.7l35.62,26.73c2.64,1.98,6.4,.1,6.4-3.2V30.03c0-3.15-3.46-5.06-6.12-3.39Z"/><path class="f" d="M6,74.03v41.31c0,2.21,1.79,4,4,4H60.87c1.6,0,3.04,.94,3.67,2.41l7.76,17.91c1.32,3.06,5.59,3.25,7.18,.32l1.59-2.93v-63.02H6Z"/><path class="e" d="M81.07,6H10c-2.21,0-4,1.79-4,4V74.03H81.07V6Z"/><path class="d" d="M152.15,6H81.07V74.03h75.08V10c0-2.21-1.79-4-4-4Z"/></g></g></g></g></svg>