<svg xmlns="http://www.w3.org/2000/svg" viewBox="0 0 279.48 298.75">
  <title>TechySavant Icon</title>
  <g id="Layer_2" data-name="Layer 2">
    <g id="Layer_1-2" data-name="Layer 1">
      <circle cx="56.15" cy="242.6" r="56.15" fill="#00ba79"/>
      <path d="M258.25,100.1a56.14,56.14,0,1,0-77-81.06A134.21,134.21,0,0,1,258.25,100.1Z" fill="#00ba79"/>
      <path d="M131.58,17.58A125.82,125.82,0,0,0,16.24,193.51a64.19,64.19,0,0,1,99.24,74.56,127.69,127.69,0,0,0,16.1,1,125.76,125.76,0,0,0,0-251.51Zm29.14,179.3a75.12,75.12,0,1,1,75.12-75.12A75.21,75.21,0,0,1,160.72,196.88Z" fill="#00ba79"/>
      <circle cx="160.72" cy="121.76" r="72.12" fill="#00ba79"/>
    </g>
  </g>
</svg>
